<svg xmlns="http://www.w3.org/2000/svg" viewBox="0 0 900 912" role="img" aria-label="Intertech">
<g transform="translate(0,912) scale(0.1,-0.1)" stroke="none">
<g fill="#243e85">
<path d="M4245 8324 c-22 -2 -98 -11 -170 -20 -71 -8 -202 -19 -290 -24 -107
-6 -185 -16 -235 -29 -41 -12 -122 -25 -180 -30 -66 -6 -126 -18 -160 -31 -30
-12 -91 -25 -135 -29 -48 -5 -100 -17 -130 -31 -27 -13 -79 -26 -115 -30 -36
-4 -84 -17 -106 -28 -23 -12 -68 -25 -100 -31 -33 -5 -84 -21 -114 -35 -30
-14 -69 -26 -86 -26 -17 0 -53 -12 -79 -26 -27 -14 -70 -29 -97 -34 -27 -6
-63 -19 -79 -30 -16 -12 -50 -25 -76 -29 -27 -4 -66 -20 -87 -34 -21 -15 -51
-27 -66 -27 -15 0 -44 -11 -64 -25 -21 -14 -58 -30 -83 -35 -25 -6 -59 -22
-75 -35 -16 -14 -42 -25 -57 -25 -16 0 -44 -13 -66 -30 -21 -16 -48 -30 -60
-30 -12 0 -42 -13 -66 -30 -24 -16 -51 -30 -60 -30 -9 0 -36 -13 -60 -30 -24
-16 -51 -30 -60 -30 -9 0 -33 -13 -54 -30 -21 -16 -46 -30 -55 -30 -9 0 -34
-13 -55 -30 -21 -16 -46 -30 -56 -30 -10 0 -34 -13 -52 -30 -19 -16 -42 -30
-50 -30 -9 0 -28 -11 -44 -24 -15 -13 -44 -31 -63 -40 -35 -16 -95 -51 -160
-93 -19 -13 -40 -23 -46 -23 -6 0 -21 -11 -34 -24 -12 -14 -35 -28 -51 -31
-15 -3 -34 -17 -43 -29 -9 -14 -29 -26 -50 -30 -33 -6 -56 -29 -56 -55 0 -6
20 -11 44 -11 34 0 48 5 59 21 8 11 36 27 63 35 26 8 57 23 68 33 12 11 40 24
62 30 23 6 53 20 67 31 14 11 40 23 59 26 18 4 50 17 70 31 20 14 56 29 79 34
23 6 55 21 71 34 18 16 42 25 62 25 19 0 49 11 71 25 20 14 60 30 88 36 28 5
61 18 73 29 11 12 43 24 70 28 27 5 70 20 95 35 25 15 59 27 75 27 16 0 56 14
89 30 33 16 74 30 90 30 17 0 57 14 90 30 33 16 76 30 95 30 20 0 62 13 95 30
39 19 76 29 104 30 26 0 67 11 100 26 32 16 85 30 128 35 39 4 90 17 113 29
25 13 75 25 124 30 44 4 105 18 135 30 29 11 95 25 145 30 50 4 135 20 190 34
59 16 127 26 170 27 39 0 105 7 146 15 165 32 259 44 350 44 52 0 221 7 375
16 238 14 317 15 525 5 135 -7 342 -16 460 -21 159 -6 240 -14 310 -30 52 -12
154 -25 225 -30 82 -6 154 -17 195 -30 36 -11 110 -25 166 -30 58 -5 124 -18
155 -30 30 -12 92 -25 139 -30 47 -5 106 -18 132 -29 26 -12 81 -26 122 -31
42 -5 94 -19 116 -30 22 -11 71 -24 108 -29 38 -5 88 -19 112 -31 23 -12 71
-26 106 -31 34 -5 79 -19 100 -31 21 -12 63 -25 95 -29 34 -4 70 -16 88 -29
18 -12 57 -25 90 -30 35 -5 72 -18 90 -31 17 -12 54 -25 84 -29 31 -5 69 -19
91 -34 21 -14 52 -26 68 -26 15 0 54 -13 85 -30 31 -16 68 -30 82 -30 14 0 46
-14 71 -30 25 -17 58 -30 76 -30 16 0 45 -11 64 -25 18 -14 50 -28 69 -31 20
-3 57 -19 82 -35 25 -16 53 -29 63 -29 22 0 69 -24 85 -44 7 -8 31 -18 54 -21
23 -4 54 -18 68 -32 33 -30 73 -28 77 4 3 18 -4 24 -36 32 -24 7 -43 19 -49
34 -7 15 -26 28 -52 35 -22 7 -45 21 -51 32 -5 10 -23 21 -40 25 -16 4 -32 11
-36 16 -3 5 -24 19 -47 31 -23 11 -55 31 -70 44 -16 13 -36 24 -46 24 -9 0
-31 14 -49 30 -18 17 -41 30 -51 30 -10 0 -35 14 -56 30 -21 17 -46 30 -55 30
-9 0 -34 14 -55 30 -21 17 -46 30 -55 30 -9 0 -34 14 -55 30 -21 17 -48 30
-60 30 -12 0 -28 7 -36 16 -17 20 -63 44 -87 44 -10 0 -27 8 -38 19 -28 25
-59 41 -83 41 -11 0 -33 11 -49 25 -16 13 -48 29 -71 34 -24 5 -53 18 -64 30
-12 11 -42 24 -66 30 -24 5 -57 19 -73 31 -15 11 -49 24 -74 29 -25 5 -59 19
-76 31 -16 12 -46 24 -66 27 -20 3 -61 19 -91 35 -30 15 -68 28 -85 28 -17 0
-53 14 -81 30 -32 19 -64 30 -89 30 -24 0 -56 10 -82 25 -23 14 -70 29 -106
34 -35 5 -82 19 -105 31 -24 12 -73 26 -110 31 -38 4 -95 20 -128 33 -38 17
-80 26 -115 26 -32 0 -84 11 -125 26 -44 15 -109 28 -175 34 -58 5 -139 19
-180 30 -50 14 -129 24 -240 30 -91 6 -214 17 -275 25 -106 15 -616 29 -710
19z M357 6943 c-17 -17 -6 -34 20 -31 36 4 45 38 10 38 -13 0 -27 -3 -30 -7z
M4395 6500 c-33 -10 -78 -19 -101 -19 -23 -1 -62 -12 -89 -27 -27 -14 -69 -29
-95 -34 -26 -5 -65 -21 -85 -35 -21 -14 -50 -25 -66 -25 -15 0 -41 -11 -57
-25 -16 -13 -48 -29 -71 -34 -24 -5 -53 -18 -64 -29 -12 -11 -39 -27 -59 -36
-21 -8 -38 -20 -38 -25 0 -6 -13 -17 -29 -26 -16 -8 -42 -26 -58 -40 -15 -14
-64 -56 -108 -92 -150 -126 -308 -300 -303 -335 5 -36 39 -34 87 7 24 19 47
35 53 35 6 0 26 14 45 30 18 17 42 30 53 30 10 0 33 12 50 26 17 15 52 31 76
35 25 5 60 19 77 31 29 21 45 23 179 26 l147 3 41 -41 42 -42 -4 -117 c-4
-103 -7 -122 -31 -165 -15 -27 -27 -63 -27 -80 0 -17 -14 -58 -30 -91 -16 -33
-30 -73 -30 -90 0 -16 -14 -57 -30 -90 -17 -33 -30 -73 -30 -90 0 -16 -14 -57
-30 -90 -17 -33 -30 -73 -30 -90 0 -16 -14 -57 -30 -90 -16 -33 -30 -73 -30
-90 0 -16 -14 -57 -30 -90 -16 -33 -30 -74 -30 -91 0 -17 -11 -52 -25 -78 -13
-25 -29 -72 -34 -104 -6 -31 -21 -79 -36 -106 -14 -27 -25 -63 -25 -80 0 -18
-13 -58 -30 -91 -16 -33 -30 -76 -30 -95 0 -20 -13 -62 -30 -95 -17 -35 -30
-76 -30 -100 0 -22 -12 -64 -25 -94 -14 -30 -30 -82 -34 -117 -5 -34 -19 -84
-31 -111 -14 -30 -25 -84 -31 -143 -4 -52 -15 -130 -24 -173 -20 -102 -19
-135 4 -232 11 -44 22 -91 25 -105 3 -14 22 -43 42 -64 32 -34 47 -41 123 -58
81 -18 92 -18 176 -4 50 8 110 17 134 21 24 3 55 15 69 25 14 11 42 23 64 26
21 4 55 20 75 35 20 16 44 29 53 29 9 0 34 14 55 30 21 17 45 30 55 30 9 0 25
10 36 21 10 12 38 30 61 40 23 10 51 27 62 38 12 12 28 21 37 21 9 0 32 14 51
30 18 17 39 30 46 30 8 0 26 13 42 30 16 16 34 30 40 30 7 0 27 15 47 33 19
17 51 47 72 64 27 23 37 39 34 55 -3 20 -10 23 -48 26 -35 2 -58 -4 -103 -28
-31 -16 -72 -30 -90 -30 -21 0 -51 -11 -78 -30 -24 -16 -57 -30 -73 -30 -16 0
-57 -13 -90 -30 -49 -23 -77 -30 -139 -32 -115 -4 -118 3 -97 247 6 72 16 126
29 156 11 25 25 78 31 117 5 39 21 92 35 118 15 28 25 63 25 88 0 25 10 60 25
87 13 26 29 74 34 107 5 33 19 79 31 102 12 23 26 68 31 101 5 32 21 80 34
105 15 29 25 63 25 89 0 26 10 61 26 90 14 27 28 71 31 99 4 28 19 78 35 111
15 33 28 76 28 95 0 19 14 64 30 98 17 35 30 80 30 101 0 20 13 63 30 96 18
36 29 76 30 101 0 24 10 61 25 88 14 26 29 76 34 110 5 35 21 88 35 118 16 33
26 72 26 99 0 28 9 61 25 91 14 26 29 76 34 111 5 35 21 90 36 121 25 53 27
65 28 215 2 189 -1 197 -103 248 -77 38 -149 42 -245 13z M7538 2427 c-21 -17
-59 -50 -85 -72 -50 -41 -106 -104 -158 -175 -16 -23 -45 -58 -62 -79 -18 -21
-33 -42 -33 -46 0 -5 -11 -23 -26 -42 -14 -18 -30 -48 -36 -66 -6 -17 -19 -41
-29 -52 -9 -11 -20 -32 -24 -47 -4 -14 -15 -35 -24 -45 -28 -29 -41 -59 -41
-90 0 -15 -11 -49 -24 -74 -13 -25 -29 -67 -34 -95 -6 -27 -22 -76 -36 -109
-15 -35 -26 -79 -26 -106 0 -57 -34 -105 -141 -199 -41 -35 -84 -75 -96 -87
-12 -13 -29 -23 -37 -23 -8 0 -28 -12 -45 -26 -17 -14 -48 -30 -68 -36 -21 -6
-50 -19 -65 -29 -14 -11 -43 -19 -63 -19 -31 0 -45 8 -81 44 -32 31 -44 51
-44 72 0 43 43 127 79 155 17 13 50 39 74 57 23 18 56 44 72 58 65 56 109 84
129 84 12 0 40 20 64 43 38 40 42 48 42 93 0 54 -21 94 -48 94 -9 0 -35 -12
-57 -25 -22 -14 -47 -25 -56 -25 -9 0 -33 -13 -54 -30 -21 -16 -43 -30 -50
-30 -6 0 -20 -9 -31 -21 -10 -12 -32 -28 -49 -36 -16 -9 -74 -53 -127 -99 -53
-46 -101 -84 -106 -84 -5 0 -34 -26 -64 -57 -31 -32 -80 -73 -109 -90 -47 -29
-63 -33 -124 -33 -67 0 -73 2 -103 33 -48 50 -43 71 38 151 87 84 116 126 176
244 41 83 45 99 39 137 -7 50 -50 100 -94 108 -51 11 -126 -17 -163 -59 -18
-22 -48 -53 -65 -70 -18 -17 -33 -35 -33 -40 0 -5 -14 -29 -30 -53 -17 -24
-30 -53 -30 -63 0 -11 -11 -38 -24 -61 -14 -23 -29 -70 -35 -105 -8 -50 -17
-72 -44 -100 -140 -154 -235 -216 -254 -165 -6 16 11 107 41 213 9 30 16 72
16 93 0 21 14 72 30 114 17 41 30 91 31 111 0 20 15 66 32 101 27 54 38 66 67
75 32 10 36 16 49 70 13 57 13 62 -7 97 -27 47 -28 79 -2 129 11 22 20 48 20
60 0 27 -35 60 -63 60 -30 0 -82 -55 -100 -105 -8 -23 -31 -59 -50 -80 l-36
-40 -139 1 c-76 1 -149 5 -161 9 -62 19 -108 -43 -98 -133 7 -67 20 -72 163
-72 137 0 154 -4 154 -32 0 -23 -27 -78 -39 -78 -5 0 -18 -20 -29 -44 -24 -50
-61 -110 -92 -146 -11 -14 -39 -50 -61 -80 -23 -30 -64 -80 -93 -111 -28 -31
-60 -67 -71 -80 -30 -35 -154 -142 -176 -153 -25 -12 -49 9 -49 45 0 15 14 50
31 78 31 49 31 53 31 170 0 87 -5 127 -16 148 -22 42 -98 117 -156 153 -8 5
-37 10 -63 10 -37 0 -53 -5 -70 -23 -12 -12 -34 -30 -49 -40 -15 -9 -30 -30
-34 -45 -22 -106 -70 -175 -205 -297 -147 -133 -141 -130 -237 -130 -79 0 -85
1 -108 28 -41 48 -33 79 44 160 37 40 81 90 97 111 17 22 40 50 53 62 12 13
22 33 22 46 0 13 9 43 20 67 25 55 25 82 0 131 -27 53 -50 64 -124 57 -60 -5
-61 -6 -131 -81 -98 -106 -121 -136 -128 -172 -3 -18 -18 -49 -32 -69 -19 -29
-25 -50 -25 -92 0 -54 -1 -56 -77 -145 -43 -49 -90 -96 -105 -104 -15 -8 -35
-26 -44 -39 -19 -29 -59 -33 -73 -7 -14 27 5 168 33 249 14 40 26 91 26 114 0
23 13 69 30 109 16 38 30 82 30 99 0 17 7 48 16 70 13 32 24 43 59 57 34 12
45 23 49 43 8 41 2 355 -7 369 -12 18 -63 15 -83 -5 -9 -10 -23 -32 -31 -50
-16 -40 -79 -139 -93 -148 -15 -9 -258 -10 -311 -1 -43 7 -48 6 -73 -20 -43
-47 -51 -85 -26 -133 12 -24 29 -43 43 -46 12 -3 78 -6 147 -8 123 -2 125 -2
128 -26 2 -14 -6 -33 -21 -50 -14 -14 -28 -37 -32 -51 -4 -14 -21 -40 -36 -58
-16 -18 -29 -39 -29 -46 0 -20 -68 -108 -154 -199 -21 -23 -61 -69 -89 -102
-27 -33 -55 -63 -61 -67 -23 -15 -49 -7 -82 26 -27 27 -34 42 -34 73 0 52 -51
130 -98 150 -73 30 -193 -26 -282 -134 -22 -26 -47 -57 -57 -68 -10 -10 -26
-32 -35 -47 -10 -15 -26 -28 -37 -28 -38 0 -35 53 4 100 7 8 18 42 25 74 7 33
21 77 32 98 11 21 23 67 25 101 5 62 5 63 -31 95 -45 40 -86 42 -128 7 -16
-14 -35 -25 -42 -25 -7 0 -34 -27 -62 -60 -27 -33 -52 -60 -55 -60 -3 0 -35
-35 -72 -77 -36 -43 -93 -105 -126 -138 -70 -69 -78 -100 -35 -134 32 -26 40
-26 60 -3 107 118 166 172 189 172 34 0 43 -26 22 -62 -9 -17 -17 -45 -17 -64
0 -19 -11 -57 -25 -83 -13 -27 -29 -77 -36 -112 -6 -35 -13 -76 -16 -91 -8
-41 31 -76 79 -70 32 3 52 19 135 105 209 214 264 264 300 273 53 14 104 -32
154 -136 12 -25 26 -46 30 -48 5 -2 24 -14 44 -28 20 -13 42 -24 50 -24 38 0
119 62 258 199 83 83 162 160 175 172 16 17 25 20 33 12 9 -9 5 -24 -11 -59
-14 -28 -26 -78 -31 -123 -4 -42 -12 -111 -19 -154 -17 -117 1 -176 63 -202
54 -23 93 2 258 166 93 93 155 146 163 143 17 -7 59 -69 80 -117 22 -53 45
-62 172 -61 112 1 138 8 175 45 10 10 25 19 32 19 7 0 40 28 73 63 34 34 92
91 130 127 38 36 87 86 109 111 22 26 59 63 82 82 48 40 72 40 103 -1 17 -21
20 -40 20 -131 0 -98 -2 -111 -30 -166 -16 -33 -30 -69 -30 -80 0 -11 -9 -35
-20 -53 -27 -44 -25 -63 8 -94 41 -40 74 -40 118 -3 16 14 36 25 44 25 8 1 31
14 50 30 19 17 41 30 48 30 22 0 79 51 269 237 96 95 176 173 178 173 3 0 9
-9 15 -20 8 -15 4 -35 -15 -87 -20 -52 -28 -100 -36 -205 -13 -177 -5 -212 51
-229 60 -18 107 1 166 68 69 76 242 233 257 233 21 0 56 -38 63 -68 4 -15 22
-44 42 -64 42 -45 96 -55 215 -40 73 10 80 13 137 62 74 64 90 62 90 -12 0
-50 2 -53 58 -105 82 -76 132 -89 263 -70 82 12 106 19 151 50 30 20 61 43 68
52 7 9 27 23 44 31 38 18 93 56 126 87 34 33 45 38 64 31 12 -5 16 -20 16 -62
0 -114 69 -243 121 -227 68 22 168 127 227 240 23 44 77 105 93 105 5 0 18
-14 27 -31 48 -87 83 -103 203 -93 72 6 78 9 123 51 43 40 48 48 42 76 -9 45
-31 57 -102 57 -43 0 -65 5 -74 15 -29 35 -70 132 -70 167 0 50 -20 68 -68 61
-57 -9 -88 -29 -107 -70 -10 -21 -29 -51 -41 -66 -13 -16 -24 -39 -24 -51 0
-13 -11 -39 -24 -58 -13 -20 -29 -51 -35 -71 -7 -20 -15 -37 -19 -39 -4 -2
-18 -18 -31 -36 -26 -37 -58 -42 -70 -11 -9 26 10 131 39 211 11 32 20 64 20
73 0 8 12 29 28 45 15 16 43 48 62 71 19 23 44 52 55 63 11 12 40 50 64 86 58
84 100 139 129 168 12 12 22 28 22 36 0 7 10 26 23 41 23 30 49 75 90 160 14
28 32 56 40 63 8 7 18 29 22 50 3 20 18 55 32 76 15 23 29 63 33 95 4 31 13
70 20 87 17 41 8 72 -36 117 -46 46 -76 48 -126 4z m16 -213 c22 -22 20 -32
-19 -94 -19 -30 -35 -59 -35 -65 0 -6 -13 -32 -29 -57 -16 -25 -32 -55 -36
-67 -3 -12 -23 -48 -43 -80 -20 -31 -55 -86 -77 -122 -43 -68 -142 -172 -156
-163 -16 9 -10 40 11 59 11 10 20 30 20 44 0 42 112 259 165 321 12 14 40 54
61 90 21 36 43 67 47 69 4 1 19 21 33 42 27 43 35 46 58 23z m-3786 -707 c12
-14 5 -57 -10 -57 -5 0 -18 -15 -29 -34 -23 -39 -46 -51 -65 -35 -27 22 -16
60 28 100 46 42 59 46 76 26z m2053 -14 c7 -19 2 -30 -25 -59 -19 -20 -41 -45
-50 -55 -22 -26 -46 -14 -46 23 0 20 8 37 25 50 14 11 25 25 25 32 0 39 57 46
71 9z M1500 2425 c-19 -14 -47 -25 -62 -25 -16 0 -35 -8 -43 -17 -68 -83 -75
-96 -75 -143 0 -33 -9 -64 -29 -102 -25 -47 -30 -68 -36 -173 -6 -97 -4 -131
9 -175 13 -45 14 -67 6 -109 -5 -30 -10 -85 -10 -122 0 -38 -7 -114 -15 -170
-8 -55 -13 -110 -9 -123 3 -13 -2 -47 -10 -77 -22 -72 -21 -187 1 -219 11 -15
17 -44 17 -80 1 -98 56 -142 109 -87 12 12 34 30 50 40 32 20 35 52 12 117
-19 54 -19 143 0 206 8 27 15 85 15 129 1 146 19 329 40 400 11 39 25 111 29
160 6 54 18 110 32 139 15 34 24 81 29 150 5 63 16 122 29 156 26 69 27 104 1
130 -26 26 -49 25 -90 -5z"/>
</g>
<g fill="#8786c1">
<path d="M4445 7809 c-22 -4 -56 -8 -76 -8 -25 -1 -48 -11 -74 -31 -21 -16
-45 -30 -53 -30 -27 0 -151 -141 -163 -185 -6 -22 -20 -56 -32 -75 -30 -49
-31 -190 0 -241 11 -20 26 -53 33 -74 7 -21 28 -58 46 -82 38 -49 130 -123
154 -123 8 0 33 -12 55 -27 38 -27 47 -28 170 -31 129 -3 131 -3 187 27 32 17
63 31 71 31 18 0 128 105 172 164 26 34 40 66 48 110 24 127 9 281 -32 336
-14 19 -33 47 -41 61 -18 33 -106 109 -125 109 -7 0 -28 12 -45 27 -26 21 -50
29 -123 39 -103 15 -116 15 -172 3z"/>
</g>
</g>
</svg>
